<mxfile host="65bd71144e">
    <diagram id="fgWGFUet2cnf-5c84Y0x" name="Page-1">
        <mxGraphModel dx="1284" dy="538" grid="1" gridSize="10" guides="1" tooltips="1" connect="1" arrows="1" fold="1" page="1" pageScale="1" pageWidth="1100" pageHeight="850" math="0" shadow="0">
            <root>
                <mxCell id="0"/>
                <mxCell id="1" parent="0"/>
                <mxCell id="13" style="edgeStyle=none;html=1;exitX=0;exitY=1;exitDx=0;exitDy=0;fontSize=30;endArrow=none;endFill=0;entryX=0.435;entryY=0.026;entryDx=0;entryDy=0;entryPerimeter=0;" parent="1" source="9" target="16" edge="1">
                    <mxGeometry relative="1" as="geometry">
                        <mxPoint x="160" y="360" as="targetPoint"/>
                    </mxGeometry>
                </mxCell>
                <mxCell id="14" style="edgeStyle=none;html=1;exitX=1;exitY=1;exitDx=0;exitDy=0;fontSize=30;endArrow=none;endFill=0;entryX=0.5;entryY=0;entryDx=0;entryDy=0;" parent="1" source="9" target="17" edge="1">
                    <mxGeometry relative="1" as="geometry">
                        <mxPoint x="400" y="360" as="targetPoint"/>
                    </mxGeometry>
                </mxCell>
                <mxCell id="9" value="1" style="ellipse;whiteSpace=wrap;html=1;aspect=fixed;strokeWidth=1;fontSize=30;fillColor=#fff2cc;strokeColor=#d6b656;" parent="1" vertex="1">
                    <mxGeometry x="220" y="210" width="80" height="80" as="geometry"/>
                </mxCell>
                <mxCell id="10" value="0" style="ellipse;whiteSpace=wrap;html=1;aspect=fixed;strokeWidth=1;fontSize=30;fillColor=#fff2cc;strokeColor=#d6b656;" parent="1" vertex="1">
                    <mxGeometry x="50" y="210" width="80" height="80" as="geometry"/>
                </mxCell>
                <mxCell id="12" value="" style="endArrow=none;html=1;fontSize=30;entryX=0;entryY=0.5;entryDx=0;entryDy=0;" parent="1" source="10" target="9" edge="1">
                    <mxGeometry width="50" height="50" relative="1" as="geometry">
                        <mxPoint x="130" y="280" as="sourcePoint"/>
                        <mxPoint x="180" y="230" as="targetPoint"/>
                    </mxGeometry>
                </mxCell>
                <mxCell id="18" style="edgeStyle=none;html=1;entryX=0;entryY=0.5;entryDx=0;entryDy=0;fontSize=30;endArrow=none;endFill=0;" parent="1" source="16" target="17" edge="1">
                    <mxGeometry relative="1" as="geometry"/>
                </mxCell>
                <mxCell id="16" value="2" style="ellipse;whiteSpace=wrap;html=1;aspect=fixed;strokeWidth=1;fontSize=30;fillColor=#fff2cc;strokeColor=#d6b656;" parent="1" vertex="1">
                    <mxGeometry x="50" y="360" width="80" height="80" as="geometry"/>
                </mxCell>
                <mxCell id="17" value="3" style="ellipse;whiteSpace=wrap;html=1;aspect=fixed;strokeWidth=1;fontSize=30;fillColor=#fff2cc;strokeColor=#d6b656;" parent="1" vertex="1">
                    <mxGeometry x="390" y="360" width="80" height="80" as="geometry"/>
                </mxCell>
                <mxCell id="19" value="" style="shape=image;verticalLabelPosition=bottom;labelBackgroundColor=#ffffff;verticalAlign=top;aspect=fixed;imageAspect=0;image=data:image/png,iVBORw0KGgoAAAANSUhEUgAAAQ0AAAC2CAYAAADDaNgKAAAgAElEQVR4nO3dd1xV9R/H8dcB7mVvB+LAkblHuM09whWaW3KkWZJpmgWampVamVo5M7U007Qcabjzp+De5MgVpmCKE5CtXOD+/mA4Cc7lcrnk5/l49HjkvWd8z+Hez/1+z3gfxeu5OnrEv2rcuCE3b9566nslS5bg0KEjJm6REIXHorAbIIQoWqwKuwFFRcmSJQq7CUKYBaVOPW9Vw5O7sWkF1RYhRBEgwxMhhCpSNHLg4uZc2E0Qwizls2g4sHVqcy4NKW6c1piRLgFTWBHQpLCbIYTZyWfRSOPW3RTi4lMNXkL8ixX4O6ACb1ko+WuKeIJr6+Vs/XgmrWXXCiPK59mTZAbNPJyvJaRrtVjayMFVY9Pgy3s+1dCd+5VguRJHGJHBRWP6203p7WWZ8Y/463zx6d8sSH/w6XyjT13GWFzlp/QSvPaCO1YWeu6ePM+IlXfYpwcFV3ZOr0nFzOnHTivFWCD5+Cmq/RKb53Y0eX8ab7OLVTSgTx0P7C0VYk8E8dH03/kncxq76p2ZMKItVV20kKYj9uJuZs/4jZNJD9r7XK/RjPOthKulQlLkOS5aProeBSfajxpJ//oZ61DuXmXbD/NZdCQ+exqHdkOY2vcFytpl/LQn3r7Mvl+WsuhAdJ63x1gcG3TF2+kvfvt5Q47TpNVox+gOlXCIv8TaRTsIM2H7RNFl8PAkcP4Bygfu5dPj8TlOY1ujAl3Sr/Pah/vouPEmLnW88C+TsUo9MbQJ3Ivr1lsZRWfcPsoH7lVVMLJY1WqPr+4AE4a9Q/8NEdjWbUbv2hn10BJv3hnVgXKR/2Py0JEM+HwL4Z5tCXi7cfb86d79efcVL5L3/cRQvwDG7kilbMlHd02FoaPxr5JA0JeT6DF0CnNPa2nz5ut0yez6W9GOcQNewOb0Sob6jaD7iGksPXkfexd1vagp/V7i3IQOj/3XgM8s8z7GsKQ+gzrWweL4Nhbez7mbkeZgh40FoLXGRYYwIo8K9uKu29fpvSaGK4Cy9w6XXnbF2s74n07tjVDemx1MAqBZfYEr3Zpj75LxpY/t1oI6jrfZPWtrRs/i7A4WHGnCty824hXlIOv18GKbmnjE/83cRYeIAWK2LySk1Rw6ZC7fEm96NyhO+L65rD0RA8DeBXtotsSXhp1s2LT5Hgp2aDQKyv14dIASfZXgJfMIVrktH676nQ/zuT809d6ifdnr7Ji/AgVPRk/4jVonmjNk871HptMeDmJOWDEcE6O4I0MYkUcFWzTS07lSoCvIWo+OhBzeqlfGCW18NOcTH3wrrkRGkWLjjJuigF5PJXc7lOgbhOTwxbGgDK6OCl4dp7Cu46PvRbhlFCcdQSxeX5FJvsNY1iSea+fPsHPrFn7LLDKmYkl9Xn+pNhYnfmBRVDpafStKueZcqO9H3+G+Cdsnij65jDzPdJz56QMmPfZr/bCLa2YxcHNJGrVqQuOmTRgYWJ+Wm79izE//5DjP46b0e4meFR8fNUaxftoxxqfl3h2w0fvgXdECe4awZfGQB29028++OkE0++yTPLdFiKcxk6JRcNeYHb8aR0pTN6raK4QkZHzpynm6o70XR7Q+498xiSlQ3Ik6CpzUA9iieahJ6VwlJt6KKpWrAif+fYVJNzm8ZQOHt2wn7osveLlmIyDvRSO/w5NE5VNef+PT7H9b6/2Y8uUYigU3e2J4IgdChSEK/YpQh7A4oh1d6FRTA1jQppI17Yx42MNlw1HOJRWn4eiO1LFTcK7bk4AWxbkTGsL6zB/u9QcvEV+8FoMG1sABJ2oPGYFP2Qe7Jo1QNp++jdML3RnboTQO2OLZsiefBfagbOY09tV78OnUwXSt6wqAc92XqOSukBhn+jMneaUr5oSDBWDvSEk5ECryyMCehi2rJtajiVPWJ80x45TpU0695sby6nW+3edCoF8jwvsDibHsXHmG/4UZ59qNVPYzY2EpJg/uyKTvOkFaMtdObmTWvAc9Bu3OpSyt9i5D2vmzzEch9sL/CIkoS7OHlvPnvFksHDWS/q+OY9lABXRxXAsNxiHz/aTwMP7WvUKP9yYz0FLJOLUbcYAFc9QeCjUd+91Xud6wOCVuRXJMDoSKPJK7XJ9huvqd+aB1McLXr2DtRfm7irwp9OGJKDzlPZzQRl0mRAqGUEF6GkIIVaSnIYRQRYqGEEIVKxluCCHUkJ6GEEIVKRpCCFWkaAghVJGiIYRQRYqGEEIVKRpCCFWkaAghVJGiIYRQRYqGEEIVKRpCCFWkaAghVJGiIYRQRYqGEEIVKRpCCFWkaAghVJGiIYRQRYqGEEIVKRpCCFWsXJwtVc0g8YBCPNukpyGEUMVMHgAtCpKCE05u8cRG/3efvajV92WBb2eey/x3QtgCOp8/UKDrLMj9OrLej/T0zHrsaQSrN3/IfBWPOy1I0tNQaeKQRoR/UpWPLIvOE5OtaMX4edOZ1EL7xHuWdu2YumwuKwLbqFpm1KsBrFs5L/O/GU9ddhZ9rf7MXzmPhf41VbddDT1JHN4zkJYbBxR4wYB/36/5Nfd4xnb47DpBvNGXnj9mXzS0+p6UnHuQmgPsCrspANyMTSIt4T63DCz6ukoe7J9ag6+szKPoKEnJJCbqSLifrGo+959m0MNvBH39fudiLtNa3I0jJj6JmLhYg9vZ56Mv+XZUE4PnF8Zj9sMTBS1W9lqsTfzLXr1kCXpa3WHytfRHXl+87jSL87NgC0tctDnv9haVi1Hznyi+uWearmgq+/l8+P4CXYf+nyAmDgvK1zI0NhocjP+DLgxgUNHQj9mOb5Uwdgwbwb2sBbX4hkYjK3NtQgfC/0pDwRNNv+k0eLkabhpIS4wkbP10wn7b+2gDfL+hTvdGeNoDaTruRuwidPIEEhP1WI0N5qX6ThkTdt6DZ2dIJ4LQXt25njm/BVXQjplO44ZlcLTMWM/5VWO5tP0sAPb6CVRY253yJBA2bwKR7abQrKoTFkRzdmpHLp9MfXTjLLQEtquNXz1nonYfgWsZncPY1lWI6Vgic6L7HP3+OL0uPDiTpODKzunlOP/NNaq9+jwVnC0hOZYt359h+JU0wJZVE+vRxCmj+HX/rBndASIuUn7+g61pXKUKg3ta0mXnHwQciefMY/teKdmOceNfon7xzJ6XLo6wzUsZtzrswSZQnl4fDaV3FRdISyby5BUsgMSHltPk/Wm87+3w4IX488z1n0eIEWuVJd4ELBxMA8eMbVYiQuj+wdpHt8euMr0DBvHKc85oLBXQxXEtdC/fL97GySQ9Ua8GENLZK2Nir1dZt/JVIJ6jcyYx7ZAuz23p//kcvM8v43TlV+hSMWO/RASvYMySk9nT2FXvzIQRbanqooU0HbEXdzN7xm+cTMrYKXnZrwpOtB81kv71PbC3VFDuXmXbD/NZdCRrkGFL9T7DGNOpEq4aJWM9kefYumwla84mqNq/aTXaMbpDJRziL7F20Q7Ccp/FKAwanljvPstttyqUqa/Jfk1XvxJuN0/xz1+ZX6TOU2nysgv/LB7O5l5+7NoYS/H+Yylb7sEqrVp8Q4MB3lgdncmWXvXYPmERF+IdshuV+kVrfu/5JaHxELm5BRt71WPzQwUDIG3QVFrUtyR83gA29/Lj92PpPDdoKp6Z60lUPiWs55f8Ee+Ae+9JeFvu5sCwX7lEPLrHCkaXKhXZMaoVr5aJ5+dvd9H2wIPRpHPwBcoH7qX04kuPfEge5YBPn+KELj9C+fFHOHTPiU4dimW+l0y/qfsy54/j1/H7KB+496GCAZDO9E376bHkIpoXm7J2RF2+LPVYXb95il2/riRgxEh6+o3nk70JeHXrx7CH9muNEQPpXTGF4PmT6DFsJhstSuLxWEsPzhxHD78R9PAbQavNETluUX6kEcq0YSPp4TeC9RHpT52myqB+9C57l03TPqCHXwDvzAvmpsaOlMwvatYwaH1EOsl//JTZ5g9UFYwsni17UOXsaob6BfBZ6D28Wr5E78zdZok374zqQLnI/zF56EgGfL6FcM+2BLzdOHv+vOzXCkNH418lgaAvJ9Fj6BTmntbS5s3X6ZLZUdbX6sHbXUtzZ+sCBvmNYODYpQTdtsRBp254CJDmYIeNBaC1xsWEHXGDiob++DYu33KlZDMfADT44FHJnZt/riMNUPDEuVVtlFNruBJ8mHQuoFs3i7AbHpTq9OCPYOPTkOKRwRybv4o0IOXvJdya+g7xiXn7udPgg0fDCqSdWUP4vrOkcwGruVv5K82LMg+tJ4ub/XVOjf8YXdR9ku/dJ6ufoLd3ZumQ1szoXgbd3oN0XnKBaTGG/OSmEropjPeupELqfXZeSgBrddfBAJy9GUn72cEs/cuKtq+14egrpXg5c3im5xaHd5/gUrQePXGc++5PruBIyfIZxcUSbzrXKk7ynzuYtz8akm4SPP1IrscdCou9jQZIJfFGEpDMtaM7+HTmOs4VwLpSz29j3MpTxJDM4WP/kKDR4EjGfo3t1oI6jrfZP2srJ5P0JJ3dwYIjt7Gt1ohXlLztV0u86d2gOOEHf2TtiRhIusneBXs4Y1GOhp1sAEi302ANpCTeIgFIjDzFhpkLWBqm/von7eEg5ny/jsWLN3PUhCdWDBqe6NjOzb/G0LCKDzZsQl+7A2VL3OD6lkMAaPWtsHdXcCz/Di+veeeReeOvVQYOYK33w7mUQtxf5zH0cjErfVWcXRXuHn3Q5dUpx0i8OxQ7l4z1PCzudBAxAMpMwgc8eD2lsheNXWP5dd4fTIjPz97XQ6qR/nrpKUz//RibzlXgW7/K9Cx1k41X9Sg40WTIEAY0KoernSajS08yWZ1sC8rg6qhw68bJf1u62fhj4SZCPu1N/7lz6H77KhcO72PZhv38k1QA3wJ9zr2TemWc0MZHc/6hH6wrkVGk2DjjpihY6HPfr1n73qvjFNZ1fPS9CLeM32fLwz+z4kAA/v0+Zl3XKMLPn2Lbyq3siEwyaJPuR9/hvkFzGs7gA6HWwWe53qwmpepYEda4Ip6Rp/njyqNd0Js7R3Lk24I/9ZVXiVHbnvq6NiyCQ97edB/RjOc2HOO9c8lcNXHbnpB9bMUN3fnTrL2e8WGuOWI07zW15cyaFXxz8hLnL7Vg6srmhdxYw6UnHWbuu4dZXrExbdrXp127PsxuVoM5by806vEV09Fx5qcPmLT5Xg7vJxMybzLBK8vQtmVzmrdoiv/M+nh/+xFf7EkxaUsNZfAp1/RT2/jnlislmvhSqmZpbv65MbvHkKKEkBilx71cyxznz5rGqViFPLa0xBMvpSrniY3R41K6Z/ZrGn197F0Uku7m/bCQkhjL4CXBBPx6DbcOzdk8pArjXAt2kGjzL+W6ekkPNo1ozeDnU9n5wy4arL/OxrSMb1Cd0sVQIo4zaX0opy/dfWJePXEk3NNj71zxwYt2Gsz9xMPdS4f4deE83lh2mniX52jR/CktVjRPvmYkx6/GkeLoRlX7B3/3cp7uaO8lEa3X52m/pnOVmHgrylaumuv6lOir7Fq/iqnvruZovAO1GtVT3ea0Gu0Y+d4wPnizPZVVz204g4uGju1cO3UNj7r+eHncIHL7oez39EQSc+g8aZW7UmfAK1gCmroBlJ0yE6eHpokNOUWsVwcavd0PS8Cy9Ku4j52B40N/uBQlhITrekrUfBNrewWL0r5Y1yyT3Ybrf1zDtkYvyjWrjoV9A/QT+lDD8i/Clx9UvU2bLlyi/ey9/J5QjEH+bdjZ1NHQ3ZMjzeVErqTa493KjnLAi+Vs6a7J2l4LAru8yLohVbE4dICe807w3vVHD9bejEtC71aazqXtwK0anSc25DmssHK2BSCVEA6FJVKswcu8WcMB3KoxYHxTyhl9SzJkfJlsKF39eRywpXRFDxxynw3IPNPwfiDT/JpR1k4Bu5K0r+uBA/HcDH90u0/eiMW20gt0drdA71aGxnUr5rBUw7hsOMq5pOI0HN2ROnYKznV7EtCiOHdCQ1ivz9t+TSOUzadv4/RCd8Z2KI0Dtni27MlngT0omzmNY7thzPyoJ+097QBbPFrWoKyjQkz0NdVt1hVzwsECsHekpAkPhObrOg3HLeeIaNeechEbOfbY0MRiXSAh2uk0eHkinXwnok9LIPrifqLtFcgaN26eyEHtRGp1fZ9Oa97PnuaEDdnnsfREkvTDL1wK7MtLP7yUcYrqzBr2//klaYD2uy/Y6T6WF0csp44lpN0N58TsQG5lriPrlGsFgM578Ogcwcle3XMefqQnE7B6P0tLuuOb/uA8yRt96jKh3oMi0uD1poQ/5dRrrlLvMn3zdeZ19mZPGyAlmdNBp/n1yH0gnZ/+OI/F/ugcD8TunL2eapO7M2TGdIakJXPt2BYWHm2Df9P2OGxcS8JD0/hMmIZPWhwXNx3jYkXvHJtU1cYWJS0OQzrHqYSwamtdxvkOY1kLBeLPs8J/Huv1oMGXqStfyr60W08r1q1slX3qVU8c4efvYNOpO7O69AVAF3+TE6tWsfCxz9OZxZvYPbk7Q+bOYQiQGHkYi5OXOGCkIUwq+5mxsBSTB3dk0nedIC2Zayc3Mmveiexp8rJf/5w3i4WjRtL/1XEsG5h1Cjk4u5DGhv/F9fbteP2LlvhbKqBL5lpoEAu+v6K6zfa7r3K9YXFK3IrkmAmHckqdet6qVid3uf63WNg1IvDr/lQ59z2DZ53IfQYzpdX35Rvf1kTv8ScwtkgeDHkqG/v3WNvGla1PufdEV78zH7QuRvj6Fay9aLrvpdlfESoKht6tDG07dKVnu6q43z7C7MVF42zLv1Gwo1GLH9mNaW5YK0iP37D2NOU9nNBGXSbEhAUDpKfxTNLY9WD6wma4R1/l8JYtLNt+joevRXx8WPGoZE5+O4HJReRIvzA+KRpCCFXM/i5XIYR5sZKegxBCDelpCCFUkaIhhFBFioYQQhUpGkIIVaRoCCFUkaIhhFBFioYQQhUpGkIIVaRoCCFUkaIhhFBFioYQQhUpGkIIVaRoCCFUkaIhhFBFioYQQhUpGkIIVaRoCCFUkaIhhFDFysVZ3VPNJR5QiGeb9DSEEKqY7GFJCk44ucUTG/3fefrV4yxpwrRWb9HQMfMhNze20vLoyvwtI/EkU4NnsqPQdpsdrUu/j//zXriln2P6HtO3Ravvy4JOL1Eu6RY7Tk5j+t0nH3wtTMdkRcOKVoyf15zEpz5ox5auk6cysORllvrPY1MeP5Spzd/kp7dqZz8nM2JrIGOWJ+Ww/nZ8vKwrz4dtpffULQZvR16EhQ5i6LX03Cd8ijQOEhCS8fBq25KT2VbDmC1Tz1o7EH/v0lw/soApUWf5sxCKV4oSxJSdp2hSwR//uoM4vHs2u/+7vz1mz0yGJ8kkxyWRei/lkSd95cZq7yIG+Y2gt98Sjsb/+6dITzQxd3VEx8cY3Mq7vUfzy+w3aWXgE7oVPGnTZTW/fXOMvYuPs2/6St4sU9rg9phEmg49d4m4c5w/U59ekHNTssoUlsw8xt6ZC/ExaN8lEZ5ylg1Rt0mx0KA1qBXCWMzmWa6/z/yQ3wtw+WmE8uWo0PwtQ6PBysbwj6xrgym837UEZ78bztRQV7oOH8fQ0ZOICBjGdjP95dSnJpKgd6GUAxCrbl4rjQ/9BwxnQKMSRN+KB9v8tcVOa4c26Tp/mem+elYYVDQsqc3Az3vjU8YZjaUCaclcOxzE+Hl7s3sKFpSn10dD6V3FBdKSiTx5BQsg8aHlPD68KKjnhPb/fA6veGV2quLPM9d/HiGPfPBsqd5nGGM6VcJVo0CajtjIc2xdtpI1ZxOeeLbpyJ/mMRKIO7qMwV8fzXM7fJvVxubCOj45fIR7+OJVzBGca9O5oYbth3VG2lrjSlMiiE6wwsFGAZVPY1d01rhqIlk+ZTgran1NcNv8taWBvSukJeXwOGRwadmdNxoWR7l6nDmrjnEvf6sTOTCoaKRxihMb7TkQfpILkXo8fYbw+SBfAi8cYdKO+wDUGDGQ3hVTCJ4/iXl/aHhpxEiGATcfXvneRQzam/H/GV/M5vncnKdb8cE7rACavD+N9ys/+b6+Vg/e7lqaO0ELGP3zWfSetWnv9yKuumQAdAQx1i+IqFcDCGmR/JSikztrvR/VSytEhZ4iHqjUsT/1r23noK0PVav3gMM/53s7swz5oDmTGrg89moyR+buoXewuoLsZP0cpWwU4g1oh44gvl4YBIBVLQMW8JgUfQo4evGKpcL6tCf/AA721lgBio0dDiBFo4AYPDz548DB7P+/uf0g57pXpYRHxjUflnjTuVZxkv9cybz90QAETz9C2wIqCvmVbqfBGohKvJXRU4o8xYaZp4y6Disq4O6sEB+7C2u9H282s2DHlx+SPuwlalsYd5S+5PO9LMnnMrT6vizw7cxzQPSVtXx9y7ADu8a05++17HIfxOhOPzL6KWeVrm5ZxezQ4ljcuK3q2JhQx8CiYUuNrv14w6cmHo6ajCEKZHcbLSiDq6PCrRsnjdPKAmZ5+GdWHAjAv9/HrOsaRfj5U2xbuZUdkYYd+MtN6Vd6U+3Sr4yNTuftAllD/qUoPzN22ylqufjyTqNODLwSRGhM4R5M8C7XlTYut9m890e2JIQ/9UxO0o3bpm/YM8agomHVbRgf9vbi9u5f+TQkjIgLngxfOJgSxm6dySQTMm8ywSvL0LZlc5q3aIr/zPp4f/sRXxjp+Eoql4mK1VPRYRQj66WyY9oKrPV+eLkrpNww7jEcYw1P7ujOsue2M50SquNqp0AhFw03rT1E72H63bOF2o5nnUFFo8FzHmji/2bdor2c1oMlno+8ryeOhHt6yjhXBP7MeNEu41RZ4hNLMx9K9FV2rV/F7vWXCFjYn1qN6sGeg09MZ8hg4r6ykrPX3qVe827oj07n3eh07DQVcHPWEX52Xf4b/xBjDE+yKGjQK8lEJxb+KYsU/b8XPDkQahoGXadxMSoObNyoWdcV7ErSYlgH6joq2NuXBSCVEA6FJVKswcu8WcMB3KoxYHxTyhm16Q+kc5WYJD3FvZrjCjhVLIurivkd2w1j5kc9ae9pB9ji0bIGZR0VYqKvPTKd27k7xDh60aydOwpOeDWqQTUV6wnad4r71ve5fv48Vhofevm3pUrsKTYfMc8zJwAWek/cHIDCrxkcjL8L1s5453CtRzFXe6wAS0dXSpm0Zc8Wg3oaUUtXsrrcUHoHTKF1mo7Yi7tZtF3Hm43a0Uq5QIgeds5eT7XJ3fGZMA2ftDgubjrGxYreOS4zrawtDuiISVH/6dRzix82HKXagC58t/Jl0N0i5PNPmXs+DUu8CVg4mAZZl2VTNeOU6UOnXmPD/+J6+3a8/kVL/C0V0CVzLTSIBd9feWQ9SujPrDjwLkMGfszawQok3SRY+Ytzh/L2pY85+iEzS85i1KDlBA9VUGIu8OOsyWZ7jQaAYu2CA7f5w4DTJ9Z6P6Z8OYYmzg++5RMXHWci4awe1pO56So3PE1HitYe9xzevhB2m3uVvUi/8TeX1TdX5JFSp563qr9cwdzlakvLwI8YVe4yn41cyDEz/hL9m6z7RlzDXjP4MvKHZVxGHleo955YW77Oj50acn3fWEbHFOY9H3Y0LDeFGRWvMCmHy8idXurL2zVSOLRgPcH3iuiHqAgo1CtCFZwo16YNr73cnNrOsez6dmWRLRgPq+y9jN3eGO2GtcJ0P20VP51+jmFN57A7+VShFLDs078pt/nj+JYc7zupXtyelKtnpWAUsELsadgy+Isv8HGJ4XJoMD8v383JpAdNefwqzEcVzJWjQojcmcnwRAhRVJjJXa5CiKJCioYQQhUpGkIIVSTuz4gk7k88C9GEEvdXACTu79n1LEQTmklyV2bcn7MBcX97yb7q899umDNW3N/2F5NYMHqR6jyNLNlpVk3KELHhRYZsNvM7JB6O+3tKhkVurIuPYupbfWhc1hrSU7hy4HveWfYdUUZsotZ2MO+OHkiXik4AKDGX+XXhaL76+2qel5H1d+lTvzQOGgXlfjxh2xfwzsZfVGaJZEQT3oy6zZDS/81oQrM5pvH7zA/pM8rwL2NuMuL+xuA/+8kb0PK8jHzG/ZWsMoVFn3/K0OoKUUlF4+fnkbg/laxoyui3B1AvNYSxo+vT66tDWDV9i5mdGxutfRbUop//UFrfz1hH6+HjWXzFjVdGTKWnijxSz9q+tHP9kwXju9LyDT/GbfwHD9/RfNpAY1C7MqIJ7/4nowkl7g8wVdzfPQ93dPtm0GODJe/NHEMxI21fQcpP3J+2TC+8S8dw6PMPOZCox9WjGE5A6YY9qbD5kFHuD0nnND9+3Yt1musk6PTAdlbv9KVPnRo0rm7F2jOpeVrOleNv0//4g38f3baV0+3HUKyEJaD+hsLcognTarRjdIdKOMRfYu2iHYSpXkPhkbg/TBP3BxC7ezjDyLiRqyCZS9xfSq3SeOpusy08HWu9H+M6O/O/HX/TzacCXSwU9Tes5UBPJAkPfa/1GgAdCQmGLV/Bk7IN21LTJoItxwz7AcstmjDNwQ4bC0BrjYuCWdxFnFcS94dp4v5MyVzi/pqXKAZJYUTq9ZTp1I2KF9by8ZlGtPXxyGfrcqbgSfuG1XC6fYbfr6i/etmq42qCu1dCSbjG7p8/Zd5Nww5o5xZNqD0cxJywYjgmRnGnCBUMkLg/wPRxf0WBMeP+LBjMiNYW7Jm2Ako2MnJLH+VaewKvN7Bgz5x3OWBAc23/N5qWu8vTquHrvDNoFgs1fRgWfCX3GR+Tl2jC+9F3uK++iYVO4v4AU8T9mZK5xP3tvXUHNNaU69GVShd+5d3odKwaFcdR1VLyzr3CNGa96U1MUCDj83gs43HxukjQRbIr5ADlXjjK0EaDIfgT1cv5L0cTStzfQwoy7s+UzCXuT3v6GpHdG9P7xcusHrccgLYexVAiQ9lkpOMZWdw9JzP9vZakbg1k8GkE354AAAhaSURBVOa9Rl22IXKLJizKB0Il7g/Txf0VRfmJ+0u5uobQaxqso8I5rgePKtN4vYETYUfWPnLmRMGF1gNe54OAoQxqYqd6Pe4VpjFrbAtS1/97wchpPRbUwve1bfw29jN8XUpjQRWatfqebtVTOXN4qer2QO7RhLpiTjhYAPaOlDTwMZ+FReL+TBj3l3WQLVu3/eztBomHZtPh+x9Vb7cp5CfuL5UDzJq/nGJv9eHr+ccyL+76lvc3H3psSlvsbS0BBQf3YoC6Ywh9+7alvJ0F9J3F3r4PXg974uK5p68nndNs++UXqo0eyKgvfAiwACUhitA1k5lgwPEMINdoQvvdV7nesDglbkUWueApM8nTkLi/p3mW4v7K+w6gXxULwtavYO3FgstsMc16co8m1NXvzAetixFewNtbECTurwBI3J9aWp5zt0WJOk9IgX6BCn49eY0mLO/hhDbqcgFvb8GQuD9R6CypS793X4Dg5aw4YdhZD3Naz3+dmQxPhBBFhdncsCaEKBqkaAghVJGiIYRQReL+jEji/syXJU2Y1mIodS1jOXP+ez68fsagO3eFxP0VCIn7Mz9pHOSLg7HUKtmX8fX6MXDLh8w38qXszwqJ+1Mhv3F/Jep+wVd+bfFyzehFxFzYxldzJhJiwFWwJpPPuD/ISCz7/I2OVOY4UwOGqXrgtYInDZpP5J3uDfFyUCA9hZiwXQbttzu6sxy4FUmUUkblFoiHmUnRyIj7+70Al58R9xeav2XkI+7P1j6ATwY3InHrVLpt20C65yg+GjOAcUPCCfl2cb7aVZAeifuLVTdvdh5qoxJE34oHW/Xr19j70LNZCUKXDOet00ew85rIx6O7GbzfFK09jvcSuVOUUm/MjMT9AaaI+0tOnMHw93/CQReZMZaOnM3WM12pV6M+PspiVb++ppSfuD9FZ42rJpLlU4azotbXBLdVv/6UxKUEfv7gprH4iKlsONWGD0t5/stc/9Ime2cc0uLI6dBaUb771FQk7g/Txf3pswpGJq0lKCkpRk3mBvOJ+9MRxNcLgwCwqmXAAp7CzdmfjjVsCAveZdgC9IC2GDVt7NiR/OTxr6Icw2cqEvdH4cT9aa38aF7Vieuhu4x+v425xP0Zk71+AnO+687zunhuHF9LoIGZGfdv/cySa/4MabeQbkSwevOjB0SLcgyfqUjcH6aP+1PwpMOAoTRJP87UVesLZB35Zcy4P2NI0i7l3TfWUrqqL8OG+PH9GOj61Veqe0DWrj3o76Xwx5HZ/Bh9kdCnnEEpqjF8piJxf4Ap4/4UPGnV4xtG1YvhlylvFcixDHOJ+zMmvS6SOCDu/AwCN9dmS/8Xec3ia/WJ5loN2qQINt86Rqj0JAwicX8PKei4PwVP6neexcTWaayf0svgpOvcmEvcn1nKZTPkQGjuJO4P08T9ZfUwprVL5ZcCLBjGlp+4v7z6t7g/r9rzWT19LWNqNcQRKFk+gOmdq2Fxbj8/GHBxlj4xlgStPR7K0zP2inIMn6lI3J+J4v7s9IPp36EsWmDA1KMMyH4nnNXDehrtwUHGlp+4P2u9H1O+HEMT5wffvomLjjPxiW3OOe7vn1NzWH1sCgOGfcMr1gro4rlxag2BS7426IyOXpdIvMYVpxzeL8oxfKZiJnkaEvf3NBL3Z3weruP4/kUHtuRwGXlRjuEzFYn7KwAS96dWwcfwZe9X22TCTi/mxxx6dkU5hs9UJO5PFDqJ4StazGR4IoQoKiSERwihihQNIYQqUjSEEKpI3J8RSdyf+ZK4P+ORuL8CIHF/5kfi/ozHTJK7no24v5JVpvD54LZUdrcGIPGfo/y4cDgrzfmScjOI+6vffgoBXepQyi4j7u/KkTVMW/IVp1U2R+L+jMNMisZ/P+5Pgw9+naoSvX063YI3oHf2Z0zgUIb7T+XgJ+O5nK+WFZzCjvuzqRDAxC5lObNyOK8fPoJ9lWnMGeXHuJgDvPrr40+fz53E/eWfxP0Bpoj707Gdr7/e/uCF2G/5eF8bgtu687wCl830M1zYcX/Jl9+l//uexOsiAYi/MI7d/xylX1UfwICiIXF/+SZxf5gu7u9hVna+vOddhphzmzhg5ILxX4v7yyoYkDFc0VpASrKBhzEl7i/fJO4P08b9PbjzU0fMmV18tXy50Y/i/xfj/rLYFPfHu3QqYWvWGjS/xP3ln8T9Ydq4vxQlhCkfhFDC3Yeeb77B1I/nEDhhpNF7G/llbnF/AFY0ZcjQdpS+so3Xg6/kPsNTSNxf/kncH2DKuD89kcTrIP7GUuYuqY33Ry/QpaoVB84Z70at/2LcnxVN6TV8Kn1dTzNj4mTDDxxL3F++SdzfQwo67s9U/mtxfxZUodsbUxlePowZE/0Jys8T6STuL98k7g/TxP3ZFJ/I99ODmNm6G+6Ai7MfI4c0ovTt02w6b763gxd23J8VTekzfAFvlfsz/wUDifszBon7M1Hc3/3bS/h2RwUCfCeywe9DSE8hOnwfs74MNLvjGQ8r7Lg/TbVXGfiCM1peJGD+MQKy3og9pvpCMZC4P2MwkzwNift7Gon7Mz6J+8s/ifsrABL3p5bE/RUlEvcnCp3E/RUtZjI8EUIUFRLCI4RQxUp6DkIINaSnIYRQRYqGEEIVKRpCCFWkaAghVJGiIYRQRYqGEEIVKRpCCFWkaAghVJGiIYRQRYqGEEIVKRpCCFWkaAghVJGiIYRQRYqGEEIVKRpCCFWkaAghVJGiIYRQRYqGEEIVK3t7denPd+9KPKAQzzLpaQghVJGiIYRQRYqGEEIVKRpCCFVUPct1wydNSEt79IFsbcfsN2qDhBDmTVXRqFzWoaDaIYQoImR4IoRQ5f+sSqKUJzKXrwAAAABJRU5ErkJggg==;" parent="1" vertex="1">
                    <mxGeometry x="100" y="490" width="269" height="182" as="geometry"/>
                </mxCell>
                <mxCell id="23" value="" style="edgeStyle=none;html=1;fontSize=22;" parent="1" source="20" target="22" edge="1">
                    <mxGeometry relative="1" as="geometry"/>
                </mxCell>
                <mxCell id="20" value="1" style="ellipse;whiteSpace=wrap;html=1;aspect=fixed;fontSize=22;" parent="1" vertex="1">
                    <mxGeometry x="540" y="50" width="80" height="80" as="geometry"/>
                </mxCell>
                <mxCell id="25" value="" style="edgeStyle=none;html=1;fontSize=22;" parent="1" source="22" target="24" edge="1">
                    <mxGeometry relative="1" as="geometry"/>
                </mxCell>
                <mxCell id="28" style="edgeStyle=none;html=1;exitX=0.5;exitY=1;exitDx=0;exitDy=0;fontSize=22;endArrow=none;endFill=0;" parent="1" source="22" edge="1">
                    <mxGeometry relative="1" as="geometry">
                        <mxPoint x="740" y="240" as="targetPoint"/>
                    </mxGeometry>
                </mxCell>
                <mxCell id="22" value="2" style="ellipse;whiteSpace=wrap;html=1;aspect=fixed;fontSize=22;" parent="1" vertex="1">
                    <mxGeometry x="700" y="50" width="80" height="80" as="geometry"/>
                </mxCell>
                <mxCell id="24" value="4" style="ellipse;whiteSpace=wrap;html=1;aspect=fixed;fontSize=22;" parent="1" vertex="1">
                    <mxGeometry x="860" y="50" width="80" height="80" as="geometry"/>
                </mxCell>
                <mxCell id="31" style="edgeStyle=none;html=1;entryX=0;entryY=0.5;entryDx=0;entryDy=0;fontSize=22;endArrow=none;endFill=0;" parent="1" source="29" target="30" edge="1">
                    <mxGeometry relative="1" as="geometry"/>
                </mxCell>
                <mxCell id="29" value="5" style="ellipse;whiteSpace=wrap;html=1;aspect=fixed;fontSize=22;" parent="1" vertex="1">
                    <mxGeometry x="700" y="240" width="80" height="80" as="geometry"/>
                </mxCell>
                <mxCell id="32" style="edgeStyle=none;html=1;exitX=0.5;exitY=0;exitDx=0;exitDy=0;entryX=0.5;entryY=1;entryDx=0;entryDy=0;fontSize=22;endArrow=classic;endFill=1;" parent="1" source="30" target="24" edge="1">
                    <mxGeometry relative="1" as="geometry"/>
                </mxCell>
                <mxCell id="30" value="3" style="ellipse;whiteSpace=wrap;html=1;aspect=fixed;fontSize=22;" parent="1" vertex="1">
                    <mxGeometry x="860" y="240" width="80" height="80" as="geometry"/>
                </mxCell>
                <mxCell id="33" value="1&amp;gt;2&lt;br&gt;2&amp;gt;4&lt;br&gt;2-5&lt;br&gt;5-3&lt;br&gt;3&amp;gt;4" style="text;html=1;strokeColor=none;fillColor=none;align=left;verticalAlign=top;whiteSpace=wrap;rounded=0;fontSize=22;" parent="1" vertex="1">
                    <mxGeometry x="600" y="360" width="130" height="130" as="geometry"/>
                </mxCell>
                <mxCell id="34" value="adjacency list&lt;br&gt;1 - 2&lt;br&gt;2 - 4 5&lt;br&gt;3-&amp;nbsp; 4 5&lt;br&gt;4 -&amp;nbsp;&lt;br&gt;5 - 3 2&lt;br&gt;&lt;br&gt;&lt;br&gt;" style="text;html=1;strokeColor=none;fillColor=none;align=left;verticalAlign=top;whiteSpace=wrap;rounded=0;" vertex="1" parent="1">
                    <mxGeometry x="680" y="360" width="210" height="130" as="geometry"/>
                </mxCell>
            </root>
        </mxGraphModel>
    </diagram>
</mxfile>